<?xml version="1.0" encoding="utf-8"?>
<!-- Generator: Adobe Illustrator 23.1.0, SVG Export Plug-In . SVG Version: 6.00 Build 0)  -->
<svg version="1.1" id="Layer_1" xmlns="http://www.w3.org/2000/svg" xmlns:xlink="http://www.w3.org/1999/xlink" x="0px" y="0px"
	 viewBox="0 0 285 55" style="enable-background:new 0 0 285 55;" xml:space="preserve">
<style type="text/css">
	.st0{fill:#4A4F54;}
	.st1{fill:none;}
	.st2{fill:#531C84;}
	.st3{fill:#D31819;}
	.st4{fill:#E8C637;}
	.st5{fill:#BC3029;}
	.st6{fill:#2A2B61;}
</style>
<g>
	<path class="st0" d="M15.08,29.18l9.34,22.85h-5.59l-1.68-4.01H9.34l-1.68,4.01H2.08l9.34-22.85H15.08z M15.74,43.65l-2.49-6.75
		l-2.49,6.75H15.74z"/>
	<path class="st0" d="M38.69,30.91c1.39,1.29,2.09,2.83,2.09,4.62h-5.28c0-0.81-0.26-1.5-0.79-2.06c-0.53-0.56-1.16-0.84-1.9-0.84
		c-0.64,0-1.19,0.21-1.65,0.62c-0.46,0.41-0.69,0.92-0.69,1.54c0,0.75,0.3,1.42,0.89,2c0.59,0.58,1.46,1.06,2.62,1.44
		c2.3,0.75,4.1,1.77,5.38,3.05c1.29,1.28,1.93,2.83,1.93,4.64c0,1.78-0.7,3.29-2.11,4.54c-1.41,1.25-3.41,1.87-6.02,1.87
		c-2.67,0-4.71-0.61-6.09-1.83c-1.39-1.22-2.17-2.95-2.34-5.18h5.28c0,1.05,0.26,1.87,0.79,2.46c0.53,0.59,1.24,0.89,2.14,0.89
		c0.83,0,1.47-0.24,1.9-0.72s0.65-1.04,0.65-1.69c0-0.79-0.32-1.5-0.96-2.16c-0.64-0.65-1.55-1.2-2.73-1.64
		c-2.39-0.92-4.17-1.95-5.33-3.08c-1.16-1.13-1.74-2.53-1.74-4.21c0-1.61,0.67-3.04,2.01-4.31c1.34-1.27,3.34-1.9,5.98-1.9
		C35.31,28.98,37.29,29.62,38.69,30.91z"/>
	<path class="st0" d="M48.75,29.28v22.75h-5.28V29.28H48.75z"/>
	<path class="st0" d="M63.06,29.18l9.34,22.85h-5.59l-1.68-4.01h-7.82l-1.68,4.01h-5.59l9.34-22.85H63.06z M63.73,43.65l-2.49-6.75
		l-2.49,6.75H63.73z"/>
	<path class="st0" d="M79.46,29.28l6.09,13.25V29.28h5.28v22.75H85.2l-6.09-12.49v12.49h-5.28V29.28H79.46z"/>
	<path class="st0" d="M105.16,29.18l9.34,22.85h-5.59l-1.68-4.01h-7.82l-1.68,4.01h-5.59l9.34-22.85H105.16z M105.82,43.65
		l-2.49-6.75l-2.49,6.75H105.82z"/>
	<path class="st0" d="M139.08,29.18l9.34,22.85h-5.59l-1.68-4.01h-7.82l-1.68,4.01h-5.59l9.34-22.85H139.08z M139.74,43.65
		l-2.49-6.75l-2.49,6.75H139.74z"/>
	<path class="st0" d="M155.12,29.28v22.75h-5.28V29.28H155.12z"/>
	<path class="st0" d="M165.38,29.28c2.61,0,4.69,0.54,6.25,1.63c1.56,1.08,2.34,2.57,2.34,4.47c0,1.52-0.3,2.79-0.89,3.78
		c-0.59,1-1.53,1.72-2.82,2.16c1.18,0.14,2.1,0.54,2.74,1.22c0.64,0.68,0.96,1.54,0.96,2.59v4.11c0,0.68,0.11,1.22,0.33,1.63
		c0.22,0.41,0.5,0.79,0.84,1.17h-5.59c-0.2-0.24-0.4-0.55-0.58-0.94c-0.19-0.39-0.28-0.8-0.28-1.24v-3.3c0-1.08-0.22-1.86-0.65-2.34
		c-0.44-0.47-1.14-0.71-2.12-0.71h-2.5v8.53h-5.28V29.28H165.38z M163.4,39.13h1.95c1.02,0,1.83-0.23,2.43-0.69s0.9-1.16,0.9-2.11
		c0-0.88-0.26-1.55-0.79-2.01s-1.3-0.69-2.32-0.69h-2.17V39.13z"/>
	<path class="st0" d="M181.93,29.28v19.09h8.68v3.66h-9.6c-1.15,0-2.17-0.37-3.05-1.12c-0.88-0.75-1.32-1.69-1.32-2.84V29.28H181.93
		z"/>
	<path class="st0" d="M198.02,29.28v22.75h-5.28V29.28H198.02z"/>
	<path class="st0" d="M206.66,29.28l6.09,13.25V29.28h5.28v22.75h-5.64l-6.09-12.49v12.49h-5.28V29.28H206.66z"/>
	<path class="st0" d="M234.58,29.28v3.66h-8.28v5.48h7.46v3.66h-7.46v6.3h8.58v3.66h-9.8c-1.12,0-2.07-0.37-2.87-1.12
		c-0.8-0.75-1.19-1.73-1.19-2.95V29.28H234.58z"/>
	<path class="st0" d="M249.91,30.91c1.39,1.29,2.09,2.83,2.09,4.62h-5.28c0-0.81-0.26-1.5-0.79-2.06c-0.53-0.56-1.16-0.84-1.9-0.84
		c-0.64,0-1.19,0.21-1.65,0.62c-0.46,0.41-0.69,0.92-0.69,1.54c0,0.75,0.3,1.42,0.89,2c0.59,0.58,1.46,1.06,2.62,1.44
		c2.3,0.75,4.1,1.77,5.38,3.05c1.29,1.28,1.93,2.83,1.93,4.64c0,1.78-0.7,3.29-2.11,4.54c-1.41,1.25-3.41,1.87-6.02,1.87
		c-2.67,0-4.71-0.61-6.09-1.83c-1.39-1.22-2.17-2.95-2.34-5.18h5.28c0,1.05,0.26,1.87,0.79,2.46c0.53,0.59,1.24,0.89,2.14,0.89
		c0.83,0,1.47-0.24,1.9-0.72c0.43-0.48,0.65-1.04,0.65-1.69c0-0.79-0.32-1.5-0.96-2.16c-0.64-0.65-1.55-1.2-2.73-1.64
		c-2.39-0.92-4.17-1.95-5.33-3.08c-1.16-1.13-1.74-2.53-1.74-4.21c0-1.61,0.67-3.04,2.01-4.31c1.34-1.27,3.34-1.9,5.98-1.9
		C246.53,28.98,248.52,29.62,249.91,30.91z"/>
</g>
<rect x="-0.12" y="-0.15" class="st1" width="284.99" height="53"/>
<path class="st1" d="M281.65,9.17c0.18-0.17,0.37-0.34,0.55-0.51c-0.13,0.01-0.25,0.02-0.38,0.03L281.65,9.17z"/>
<path class="st2" d="M281.83,8.69l0.65-1.77c0.56-1.54,0.18-3.26-0.98-4.42c-1.16-1.16-2.89-1.53-4.42-0.96l-4.66,1.73
	c-3.91,3.41-7.9,6.36-11.71,8.87C267,10.62,274.38,9.23,281.83,8.69z"/>
<path class="st3" d="M272.42,3.27l-23.74,8.8c-1.82,0.67-2.88,2.48-2.71,4.32c3.06-1.04,8.33-2.71,14.73-4.25
	C264.51,9.63,268.51,6.68,272.42,3.27z"/>
<path class="st4" d="M260.7,12.14c-4.73,3.12-9.18,5.56-12.84,7.38c1.07,0.69,2.44,0.9,3.73,0.42l19.87-7.36l-6.84,18.68
	c2.71-5.5,7.77-13.4,17.04-22.09l0.18-0.48C274.38,9.23,267,10.62,260.7,12.14z"/>
<path class="st5" d="M245.97,16.39c0.03,0.36,0.1,0.72,0.23,1.08c0.33,0.89,0.93,1.58,1.67,2.06c3.66-1.82,8.1-4.26,12.84-7.38
	C254.3,13.68,249.03,15.35,245.97,16.39z"/>
<path class="st6" d="M264.62,31.26l-0.1,0.27c-0.8,2.18,0.32,4.59,2.5,5.39c0.48,0.17,0.96,0.26,1.44,0.26
	c1.71,0,3.32-1.06,3.94-2.76l9.25-25.25C272.39,17.86,267.33,25.76,264.62,31.26z"/>
</svg>
