<?xml version="1.0" encoding="utf-8"?>
<!-- Generator: Adobe Illustrator 26.3.1, SVG Export Plug-In . SVG Version: 6.00 Build 0)  -->
<svg version="1.1" id="Layer_1" xmlns="http://www.w3.org/2000/svg" xmlns:xlink="http://www.w3.org/1999/xlink" x="0px" y="0px"
	 viewBox="0 0 135 135" style="enable-background:new 0 0 135 135;" xml:space="preserve">
<style type="text/css">
	.st0{fill:#4259A8;stroke:#000000;stroke-width:1.5;stroke-miterlimit:10;}
	.st1{fill:none;stroke:#000000;stroke-width:1.5;stroke-linecap:round;stroke-miterlimit:10;}
	.st2{fill:none;stroke:#000000;stroke-width:1.5;stroke-miterlimit:10;}
</style>
<g>
	<circle class="st0" cx="66.8" cy="90.3" r="4.17"/>
	<path class="st1" d="M66.8,105.39"/>
	<path class="st0" d="M78.51,84.29c-1.04,0-2.08-0.45-2.8-1.31c-2.18-2.63-5.39-4.13-8.81-4.13c-3.28,0-6.42,1.41-8.59,3.88
		c-1.33,1.51-3.63,1.65-5.14,0.32c-1.51-1.33-1.65-3.63-0.32-5.14c3.56-4.03,8.68-6.34,14.05-6.34c5.58,0,10.83,2.46,14.4,6.75
		c1.29,1.55,1.08,3.84-0.47,5.13C80.16,84.01,79.33,84.29,78.51,84.29z"/>
	<path class="st2" d="M66.53,106.64"/>
	<path class="st0" d="M87.73,73.11c-0.93,0-1.86-0.36-2.57-1.07c-4.88-4.87-11.36-7.56-18.25-7.56s-13.37,2.68-18.25,7.56
		c-1.42,1.42-3.73,1.42-5.15,0c-1.42-1.42-1.42-3.73,0-5.15c6.25-6.25,14.56-9.69,23.4-9.69s17.15,3.44,23.4,9.69
		c1.42,1.42,1.42,3.73,0,5.15C89.59,72.76,88.66,73.11,87.73,73.11z"/>
	<path class="st0" d="M97.92,62.31c-0.92,0-1.84-0.35-2.55-1.04c-7.65-7.5-17.75-11.63-28.46-11.63c-10.15,0-19.87,3.76-27.37,10.6
		c-1.49,1.35-3.79,1.25-5.14-0.24c-1.35-1.49-1.25-3.79,0.24-5.14c8.84-8.06,20.31-12.49,32.28-12.49
		c12.63,0,24.55,4.87,33.56,13.71c1.44,1.41,1.46,3.71,0.05,5.15C99.8,61.95,98.86,62.31,97.92,62.31z"/>
</g>
</svg>
