<?xml version="1.0" encoding="utf-8"?>
<!-- Generator: Adobe Illustrator 26.3.1, SVG Export Plug-In . SVG Version: 6.00 Build 0)  -->
<svg version="1.1" id="Layer_1" xmlns="http://www.w3.org/2000/svg" xmlns:xlink="http://www.w3.org/1999/xlink" x="0px" y="0px"
	 viewBox="0 0 135 135" style="enable-background:new 0 0 135 135;" xml:space="preserve">
<style type="text/css">
	.st0{fill:#FFFFFF;stroke:#000000;stroke-width:1.5;stroke-miterlimit:10;}
	.st1{fill:#CB416C;stroke:#000000;stroke-width:1.5;stroke-miterlimit:10;}
	.st2{fill:#E1C670;stroke:#000000;stroke-width:1.5;stroke-miterlimit:10;}
	.st3{fill:#4259A8;stroke:#000000;stroke-width:1.5;stroke-miterlimit:10;}
</style>
<g>
	<path class="st0" d="M89.52,99.46H44.98c-1.65,0-3.01-1.35-3.01-3.01V38.42c0-1.65,1.35-3.01,3.01-3.01h44.54
		c1.65,0,3.01,1.35,3.01,3.01v58.04C92.53,98.11,91.18,99.46,89.52,99.46z"/>
	<path class="st1" d="M56.62,52.2h-5.59c-0.56,0-1.02-0.46-1.02-1.02v-5.16c0-0.56,0.46-1.02,1.02-1.02h5.59
		c0.56,0,1.02,0.46,1.02,1.02v5.16C57.64,51.74,57.18,52.2,56.62,52.2z"/>
	<path class="st0" d="M69.79,52.2h-5.59c-0.56,0-1.02-0.46-1.02-1.02v-5.16c0-0.56,0.46-1.02,1.02-1.02h5.59
		c0.56,0,1.02,0.46,1.02,1.02v5.16C70.81,51.74,70.35,52.2,69.79,52.2z"/>
	<path class="st0" d="M83.16,52.2h-5.59c-0.56,0-1.02-0.46-1.02-1.02v-5.16c0-0.56,0.46-1.02,1.02-1.02h5.59
		c0.56,0,1.02,0.46,1.02,1.02v5.16C84.18,51.74,83.73,52.2,83.16,52.2z"/>
	<path class="st0" d="M83.16,65.63h-5.59c-0.56,0-1.02-0.46-1.02-1.02v-5.16c0-0.56,0.46-1.02,1.02-1.02h5.59
		c0.56,0,1.02,0.46,1.02,1.02v5.16C84.18,65.17,83.73,65.63,83.16,65.63z"/>
	<path class="st2" d="M69.79,65.63h-5.59c-0.56,0-1.02-0.46-1.02-1.02v-5.16c0-0.56,0.46-1.02,1.02-1.02h5.59
		c0.56,0,1.02,0.46,1.02,1.02v5.16C70.81,65.17,70.35,65.63,69.79,65.63z"/>
	<path class="st0" d="M56.62,65.63h-5.59c-0.56,0-1.02-0.46-1.02-1.02v-5.16c0-0.56,0.46-1.02,1.02-1.02h5.59
		c0.56,0,1.02,0.46,1.02,1.02v5.16C57.64,65.17,57.18,65.63,56.62,65.63z"/>
	<path class="st3" d="M76.58,99.46h-16.5c-0.91,0-1.66-0.74-1.66-1.66V79.4c0-0.91,0.74-1.66,1.66-1.66h16.5
		c0.91,0,1.66,0.74,1.66,1.66v18.4C78.23,98.72,77.49,99.46,76.58,99.46z"/>
</g>
</svg>
