<?xml version="1.0" encoding="utf-8"?>
<!-- Generator: Adobe Illustrator 26.3.1, SVG Export Plug-In . SVG Version: 6.00 Build 0)  -->
<svg version="1.1" id="Layer_1" xmlns="http://www.w3.org/2000/svg" xmlns:xlink="http://www.w3.org/1999/xlink" x="0px" y="0px"
	 viewBox="0 0 45 45" style="enable-background:new 0 0 45 45;" xml:space="preserve">
<style type="text/css">
	.st0{fill:none;stroke:#2D9AC5;stroke-width:3;stroke-miterlimit:10;}
	.st1{fill:#FFFFFF;}
</style>
<g>
	<circle class="st0" cx="22.5" cy="22.5" r="21"/>
	<path class="st1" d="M29.95,16.07c0,0-3.13-2.6-5.94-0.8s-1.86,4.88-1.86,4.88s-5.75,0.1-10.05-4.83c0,0-0.82,3.98,1.78,5.78
		c0,0-0.85,0.53-2.12-0.32c0,0,1.01,3.98,3.55,4.82c0,0-0.64,0.48-2.17-0.21c0,0,1.33,3.07,4.29,3.45c0,0-1.75,1.96-5.94,1.64
		c0,0,18.4,8.22,19.72-11.45c0,0,1.59-0.16,2.28-2.23c0,0-1.27,0.85-2.17,0.48c0,0,1.27-0.11,1.33-2.33
		C32.65,14.96,30.58,17.03,29.95,16.07z"/>
</g>
</svg>
