<?xml version="1.0" encoding="utf-8"?>
<!-- Generator: Adobe Illustrator 26.3.1, SVG Export Plug-In . SVG Version: 6.00 Build 0)  -->
<svg version="1.1" id="Layer_1" xmlns="http://www.w3.org/2000/svg" xmlns:xlink="http://www.w3.org/1999/xlink" x="0px" y="0px"
	 viewBox="0 0 45 45" style="enable-background:new 0 0 45 45;" xml:space="preserve">
<style type="text/css">
	.st0{fill:none;stroke:#EE2C3C;stroke-width:3;stroke-miterlimit:10;}
	.st1{fill:#FFFFFF;}
</style>
<g>
	<circle class="st0" cx="22.5" cy="22.5" r="21"/>
	<g>
		<path class="st1" d="M32.72,31.04H12.28c-1.24,0-2.25-1.01-2.25-2.25V16.2c0-1.24,1.01-2.25,2.25-2.25h20.45
			c1.24,0,2.25,1.01,2.25,2.25V28.8C34.97,30.03,33.96,31.04,32.72,31.04z"/>
		<path d="M26.12,22.66l-6.81,3.86c-0.13,0.07-0.28-0.02-0.28-0.16v-7.72c0-0.15,0.16-0.24,0.28-0.16l6.81,3.86
			C26.25,22.41,26.25,22.59,26.12,22.66z"/>
	</g>
</g>
</svg>
