<?xml version="1.0" encoding="utf-8"?>
<!-- Generator: Adobe Illustrator 23.1.0, SVG Export Plug-In . SVG Version: 6.00 Build 0)  -->
<svg version="1.1" id="Layer_1" xmlns="http://www.w3.org/2000/svg" xmlns:xlink="http://www.w3.org/1999/xlink" x="0px" y="0px"
	 viewBox="0 0 28 28" style="enable-background:new 0 0 28 28;" xml:space="preserve">
<style type="text/css">
	.st0{fill:none;}
	.st1{fill:#7F8082;}
	.st2{fill:#FFFFFF;}
</style>
<g>
	<rect x="0" class="st0" width="28" height="28"/>
	<g>
		<path class="st1" d="M21.54,21.61H6.46c-1.43,0-2.6-1.17-2.6-2.6V8.99c0-1.43,1.17-2.6,2.6-2.6h15.08c1.43,0,2.6,1.17,2.6,2.6
			v10.03C24.14,20.44,22.97,21.61,21.54,21.61z"/>
		<path class="st2" d="M18.15,13.77l-6.04-3.36c-0.17-0.1-0.39,0.03-0.39,0.23v6.72c0,0.2,0.21,0.33,0.39,0.23l6.04-3.36
			C18.33,14.13,18.33,13.87,18.15,13.77z"/>
	</g>
</g>
</svg>
