<?xml version="1.0" encoding="utf-8"?>
<!-- Generator: Adobe Illustrator 23.1.0, SVG Export Plug-In . SVG Version: 6.00 Build 0)  -->
<svg version="1.1" id="Layer_1" xmlns="http://www.w3.org/2000/svg" xmlns:xlink="http://www.w3.org/1999/xlink" x="0px" y="0px"
	 viewBox="0 0 28 28" style="enable-background:new 0 0 28 28;" xml:space="preserve">
<style type="text/css">
	.st0{fill:#7F8082;}
	.st1{fill:none;}
</style>
<g>
	<g>
		<path class="st0" d="M18.23,15.53H9.77c-0.38,0-0.69-0.31-0.69-0.69V6.38c0-0.38,0.31-0.69,0.69-0.69h8.46
			c0.38,0,0.69,0.31,0.69,0.69v8.46C18.92,15.22,18.61,15.53,18.23,15.53z"/>
		<path class="st0" d="M12.55,21.88l-0.56-2.21c-0.07-0.27,0.06-0.56,0.31-0.66c2.12-0.84,2.86-3.52,3.07-4.64
			c0.05-0.28,0.32-0.47,0.6-0.44l2.27,0.22c0.32,0.03,0.55,0.33,0.5,0.65c-0.28,1.63-1.42,6.1-5.5,7.48
			C12.95,22.38,12.63,22.19,12.55,21.88z"/>
	</g>
	<rect x="0" class="st1" width="28" height="28"/>
</g>
</svg>
