<?xml version="1.0" encoding="utf-8"?>
<!-- Generator: Adobe Illustrator 23.1.0, SVG Export Plug-In . SVG Version: 6.00 Build 0)  -->
<svg version="1.1" id="Layer_1" xmlns="http://www.w3.org/2000/svg" xmlns:xlink="http://www.w3.org/1999/xlink" x="0px" y="0px"
	 viewBox="0 0 28 28" style="enable-background:new 0 0 28 28;" xml:space="preserve">
<style type="text/css">
	.st0{fill:none;}
	.st1{fill:#7F8082;}
</style>
<g>
	<rect x="0" class="st0" width="28" height="28"/>
	<path class="st1" d="M20.32,7.77c0,0-2.65-2.2-5.04-0.67s-1.57,4.14-1.57,4.14s-4.88,0.09-8.52-4.1c0,0-0.7,3.38,1.51,4.91
		c0,0-0.72,0.45-1.8-0.27c0,0,0.85,3.37,3.01,4.09c0,0-0.54,0.4-1.84-0.18c0,0,1.12,2.61,3.64,2.92c0,0-1.48,1.66-5.04,1.39
		c0,0,15.61,6.97,16.73-9.72c0,0,1.35-0.13,1.93-1.89c0,0-1.08,0.72-1.84,0.4c0,0,1.08-0.09,1.12-1.98
		C22.61,6.82,20.86,8.58,20.32,7.77z"/>
</g>
</svg>
