<?xml version="1.0" encoding="utf-8"?>
<!-- Generator: Adobe Illustrator 26.3.1, SVG Export Plug-In . SVG Version: 6.00 Build 0)  -->
<svg version="1.1" id="Layer_1" xmlns="http://www.w3.org/2000/svg" xmlns:xlink="http://www.w3.org/1999/xlink" x="0px" y="0px"
	 viewBox="0 0 120 120" style="enable-background:new 0 0 120 120;" xml:space="preserve">
<style type="text/css">
	.st0{fill:none;}
	.st1{fill:#FFFFFF;stroke:#000000;stroke-width:2;stroke-miterlimit:10;}
	.st2{fill:#E1C670;stroke:#000000;stroke-width:2;stroke-miterlimit:10;}
	.st3{fill:#5C7EBA;stroke:#000000;stroke-width:2;stroke-miterlimit:10;}
	.st4{fill:none;stroke:#000000;stroke-width:2;stroke-miterlimit:10;}
</style>
<g>
	<rect class="st0" width="120" height="120"/>
	<g>
		<path class="st1" d="M59.9,24.5"/>
		<circle class="st1" cx="60" cy="60" r="52.77"/>
		<path class="st1" d="M55.73,18.4c-1.46,0-2.66,1.2-2.66,2.66v16.18c0,1.39-1.13,2.52-2.52,2.52h0c-1.39,0-2.52-1.13-2.52-2.52
			V21.05c0-1.46-1.2-2.66-2.66-2.66c-1.46,0-2.66,1.2-2.66,2.66v16.18c0,1.39-1.13,2.52-2.52,2.52h-0.12
			c-1.39,0-2.52-1.13-2.52-2.52V21.05c0-1.46-1.2-2.66-2.66-2.66c-1.46,0-2.66,1.2-2.66,2.66v20.26v0.43v2.27
			c0,2.93,2.4,5.33,5.33,5.33h15.47c2.93,0,5.33-2.4,5.33-5.33v-2.27v-0.43V21.05C58.38,19.59,57.19,18.4,55.73,18.4z"/>
		<path class="st2" d="M44.53,53.99L44.53,53.99c1.67,0,3.09,1.39,3.16,3.16l1.48,38.18c0.16,4.03-1.93,7.54-4.64,7.54h0
			c-2.71,0-4.8-3.51-4.64-7.54l1.48-38.18C41.43,55.38,42.85,53.99,44.53,53.99z"/>
		<path class="st2" d="M39.97,93.09c0,0,4.46,5.51,9.11,0"/>
		<path class="st3" d="M75.4,53.99L75.4,53.99c1.67,0,3.09,1.39,3.16,3.16l1.48,38.18c0.16,4.03-1.93,7.54-4.64,7.54h0
			c-2.71,0-4.8-3.51-4.64-7.54l1.48-38.18C72.31,55.38,73.73,53.99,75.4,53.99z"/>
		<path class="st3" d="M70.84,93.09c0,0,4.46,5.51,9.11,0"/>
		<path class="st1" d="M87.07,35.22c0,7.9-5.23,14.31-11.67,14.31c-6.45,0-11.67-6.41-11.67-14.31s5.23-16.26,11.67-16.26
			C81.85,18.96,87.07,27.32,87.07,35.22z"/>
		<path class="st4" d="M66.93,95.98c-2.28,0.43-4.63,0.66-7.03,0.66c-2.34,0-4.62-0.21-6.83-0.62"/>
		<path class="st4" d="M90.73,40.84c3.79,5.67,5.99,12.45,5.99,19.73c0,11.2-5.22,21.22-13.4,27.83"/>
		<path class="st4" d="M37.57,89.25c-8.81-6.59-14.5-16.99-14.5-28.68c0-7.28,2.2-14.06,5.99-19.73"/>
	</g>
</g>
</svg>
