<?xml version="1.0" encoding="utf-8"?>
<!-- Generator: Adobe Illustrator 26.3.1, SVG Export Plug-In . SVG Version: 6.00 Build 0)  -->
<svg version="1.1" id="Layer_1" xmlns="http://www.w3.org/2000/svg" xmlns:xlink="http://www.w3.org/1999/xlink" x="0px" y="0px"
	 viewBox="0 0 168 168" style="enable-background:new 0 0 168 168;" xml:space="preserve">
<style type="text/css">
	.st0{fill:#FFFFFF;}
	.st1{fill:none;stroke:#000000;stroke-width:2.4;stroke-linecap:round;stroke-linejoin:round;stroke-miterlimit:10;}
	.st2{fill:#E1C670;stroke:#000000;stroke-width:2.4;stroke-miterlimit:10;}
</style>
<g>
	<circle class="st0" cx="84" cy="84" r="84"/>
	<g>
		<path class="st1" d="M83.26,97.67c-3.32,1.46-7,2.26-10.86,2.26c-14.96,0-27.08-12.12-27.08-27.08S57.45,45.77,72.4,45.77
			s27.08,12.12,27.08,27.08c0,8.45-3.87,16-9.94,20.96"/>
		<path class="st2" d="M121.75,118.19l-3.11,3.11c-1.23,1.23-3.25,1.23-4.49,0l-18.32-18.32c-1.23-1.23-1.23-3.25,0-4.49l3.11-3.11
			c1.23-1.23,3.25-1.23,4.49,0l18.32,18.32C122.99,114.94,122.99,116.96,121.75,118.19z"/>
		<line class="st1" x1="92.25" y1="91.25" x2="97.39" y2="96.95"/>
	</g>
</g>
</svg>
