<?xml version="1.0" encoding="utf-8"?>
<!-- Generator: Adobe Illustrator 26.3.1, SVG Export Plug-In . SVG Version: 6.00 Build 0)  -->
<svg version="1.1" id="Layer_1" xmlns="http://www.w3.org/2000/svg" xmlns:xlink="http://www.w3.org/1999/xlink" x="0px" y="0px"
	 viewBox="0 0 120 120" style="enable-background:new 0 0 120 120;" xml:space="preserve">
<style type="text/css">
	.st0{fill:none;}
	.st1{fill:#FFFFFF;stroke:#000000;stroke-width:2;stroke-miterlimit:10;}
	.st2{fill:#5C7EBA;stroke:#000000;stroke-width:2;stroke-miterlimit:10;}
	.st3{fill:#CB416C;stroke:#000000;stroke-width:2;stroke-miterlimit:10;}
</style>
<g>
	<rect x="0.08" y="0" class="st0" width="120" height="120"/>
	<path class="st1" d="M86.95,71.1c0,0,5.54-14.71,13.47-12.67c0,0,8.05-0.34,10.07,7.33c0,0,0.25,4.15-0.76,6.17
		c-1.01,2.01-12.84,24.67-12.84,24.67s-2.77,5.16-7.05,5.16c-4.28,0-57.26,0-57.26,0l-9.56-32.09c0,0,16.23-22.02,36.24-4.4h22.02
		c0,0,5.66,1.76,5.66,7.42c0,5.66-5.03,8.31-5.03,8.31l-28.69,2.77"/>
	<path class="st2" d="M26.52,108.16l-0.11,0.02c-4.74,0.99-9.44-2.08-10.43-6.82L9.85,72.06c-0.99-4.74,2.08-9.44,6.82-10.43
		l0.11-0.02c4.74-0.99,9.44,2.08,10.43,6.82l6.13,29.31C34.33,102.48,31.26,107.17,26.52,108.16z"/>
	<path class="st3" d="M93.83,28.59c0,13-12.65,19.29-23.53,27.27c-9.25-7.09-23.53-14.27-23.53-27.27c0-2.38,0.35-4.68,1.01-6.84
		c2.95-9.72,15.88-12.42,21.41-3.91c0.43,0.67,0.81,1.39,1.11,2.15c0.03-0.07,0.07-0.14,0.1-0.22c4.81-10.02,19.55-8.27,22.56,2.43
		C93.53,24.24,93.83,26.38,93.83,28.59z"/>
</g>
</svg>
