<?xml version="1.0" encoding="utf-8"?>
<!-- Generator: Adobe Illustrator 26.3.1, SVG Export Plug-In . SVG Version: 6.00 Build 0)  -->
<svg version="1.1" id="Layer_1" xmlns="http://www.w3.org/2000/svg" xmlns:xlink="http://www.w3.org/1999/xlink" x="0px" y="0px"
	 viewBox="0 0 120 120" style="enable-background:new 0 0 120 120;" xml:space="preserve">
<style type="text/css">
	.st0{fill:none;}
	.st1{fill:#FFFFFF;stroke:#000000;stroke-width:2;stroke-miterlimit:10;}
	.st2{fill:#CB416C;stroke:#000000;stroke-width:2;stroke-miterlimit:10;}
	.st3{fill:#4259A8;stroke:#000000;stroke-width:2;stroke-miterlimit:10;}
	.st4{fill:none;stroke:#000000;stroke-width:2;stroke-miterlimit:10;}
</style>
<g>
	<rect x="0" y="0" class="st0" width="120" height="120"/>
	<g>
		<path class="st1" d="M72.01,28.96H55.11c-2.61,0-4.75-2.14-4.75-4.75V11.97c0-2.61,2.14-4.75,4.75-4.75h16.89
			c2.61,0,4.75,2.14,4.75,4.75v12.24C76.75,26.83,74.62,28.96,72.01,28.96z"/>
		<path class="st1" d="M89.61,88.19H35.13c-2.22,0-4.03-1.82-4.03-4.03V25.21c0-2.22,1.82-4.03,4.03-4.03h54.48
			c2.22,0,4.03,1.82,4.03,4.03v58.94C93.65,86.37,91.83,88.19,89.61,88.19z"/>
		<line class="st1" x1="31.1" y1="76.61" x2="93.65" y2="76.61"/>
		<path class="st2" d="M78.56,76.61H47.8V50.37c0-2.58,2.11-4.7,4.7-4.7h21.36c2.58,0,4.7,2.11,4.7,4.7V76.61z"/>
		<line class="st1" x1="47.8" y1="59.53" x2="72.39" y2="59.53"/>
		<line class="st1" x1="54.54" y1="29.91" x2="65.08" y2="29.91"/>
		<line class="st1" x1="69.54" y1="29.91" x2="71.82" y2="29.91"/>
		<circle class="st1" cx="38.88" cy="91.13" r="3.89"/>
		<circle class="st1" cx="87.34" cy="91.13" r="3.89"/>
		<rect x="19.42" y="61.14" class="st1" width="4.84" height="37.21"/>
		<circle class="st1" cx="22.46" cy="49.94" r="14.9"/>
		<path class="st1" d="M106.46,112.77H15.15c-1.62,0-2.94-1.32-2.94-2.94v-2.28c0-1.62,1.32-2.94,2.94-2.94h91.31
			c1.62,0,2.94,1.32,2.94,2.94v2.28C109.4,111.45,108.08,112.77,106.46,112.77z"/>
		<path class="st3" d="M106.41,107.36H13.59c-3.58,0-6.5-2.93-6.5-6.5v0c0-3.58,2.93-6.5,6.5-6.5h92.83c3.58,0,6.5,2.93,6.5,6.5v0
			C112.92,104.44,109.99,107.36,106.41,107.36z"/>
		<path class="st1" d="M15.91,47.09c0,0,0.19,5.03,2.18,8.07l4.37-4.56l3.42,4.56c0,0,2.66-3.61,2.56-8.07"/>
		<line class="st4" x1="13.54" y1="50.6" x2="16.38" y2="50.6"/>
		<line class="st1" x1="27.98" y1="50.6" x2="30.24" y2="50.6"/>
	</g>
</g>
</svg>
