<?xml version="1.0" encoding="utf-8"?>
<!-- Generator: Adobe Illustrator 26.3.1, SVG Export Plug-In . SVG Version: 6.00 Build 0)  -->
<svg version="1.1" id="Layer_1" xmlns="http://www.w3.org/2000/svg" xmlns:xlink="http://www.w3.org/1999/xlink" x="0px" y="0px"
	 viewBox="0 0 120 120" style="enable-background:new 0 0 120 120;" xml:space="preserve">
<style type="text/css">
	.st0{fill:none;}
	.st1{fill:#FFFFFF;stroke:#000000;stroke-width:2;stroke-miterlimit:10;}
	.st2{fill:#5C7EBA;stroke:#000000;stroke-width:2;stroke-miterlimit:10;}
	.st3{fill:#CB416C;stroke:#000000;stroke-width:2;stroke-miterlimit:10;}
	.st4{fill:#E1C670;stroke:#000000;stroke-width:2;stroke-miterlimit:10;}
</style>
<g>
	<rect class="st0" width="120" height="120"/>
	<g>
		<path class="st1" d="M84.32,111.89H13.08c-1.84,0-3.35-1.51-3.35-3.35V52.85c0-1.84,1.51-3.35,3.35-3.35h71.25
			c1.84,0,3.35,1.51,3.35,3.35v55.68C87.68,110.38,86.17,111.89,84.32,111.89z"/>
		<rect x="9.72" y="64.56" class="st1" width="77.96" height="10.38"/>
		<rect x="43.13" y="49.5" class="st2" width="11.01" height="62.39"/>
		<path class="st1" d="M108.58,97.85l-9.89,5.79c-1.64,0.96-3.75,0.41-4.7-1.23L57.89,40.77c-0.96-1.64-0.41-3.75,1.23-4.7
			l9.89-5.79c1.64-0.96,3.75-0.41,4.7,1.23l36.09,61.64C110.77,94.78,110.22,96.89,108.58,97.85z"/>
		<path class="st1" d="M19.4,13.81c0,0,19.62,9.55,24.49,28.28c0,0-0.82-25.06-20.63-33.98L19.4,13.81z"/>
		<path class="st1" d="M66.86,14.12l2.28,5.38c0,0-10.25,1.27-18.41,12.97C50.72,32.47,51.93,15.14,66.86,14.12z"/>
		<path class="st1" d="M91.73,60.76"/>
		<path class="st3" d="M91.69,59.59c0,0,11.22-6.3,5.31-16.31c-0.55-0.93-1.56-1.5-2.65-1.49c-2.87,0.02-8.61,0.25-10.5,1.62
			C81.3,45.26,91.69,59.59,91.69,59.59z"/>
		<path class="st1" d="M90.03,61.11c-0.49,1.25-7.07-2.37-8.4-7.97c0,0-1.42-7.4,1.04-9.21c0.88-0.64,1.88-0.7,2.79-0.51
			c1.86,0.39,3.31,1.81,4.04,3.57C90.69,49.86,92.26,55.38,90.03,61.11z"/>
		<path class="st4" d="M93.5,59.02c3.49-0.92,11.24-2.14,16.16,3.36c0.7,0.78,0.79,1.94,0.25,2.84c-1.63,2.68-5.09,8.29-5.92,9.14
			c-0.89,0.91-8.4-9.34-11.23-13.27C92.22,60.33,92.6,59.26,93.5,59.02z"/>
		<path class="st1" d="M91.16,60.79c0,0,11.74,1.84,13.3,8.72s-3.56,5.69-3.56,5.69S90.62,72.53,91.16,60.79z"/>
		<path class="st1" d="M89.73,59.37c0,0-6.67-5.82-14.26-4.55V66.2C75.47,66.2,79.63,62.47,89.73,59.37z"/>
		<path class="st1" d="M92.54,61.65c0,0-8.78,9.3-10.55,10.57l5.28,6.07C87.26,78.29,96.76,69.3,92.54,61.65z"/>
		<circle class="st1" cx="91.16" cy="60.42" r="3.23"/>
	</g>
</g>
</svg>
