<?xml version="1.0" encoding="utf-8"?>
<!-- Generator: Adobe Illustrator 26.3.1, SVG Export Plug-In . SVG Version: 6.00 Build 0)  -->
<svg version="1.1" id="Layer_1" xmlns="http://www.w3.org/2000/svg" xmlns:xlink="http://www.w3.org/1999/xlink" x="0px" y="0px"
	 viewBox="0 0 120 120" style="enable-background:new 0 0 120 120;" xml:space="preserve">
<style type="text/css">
	.st0{fill:none;}
	.st1{fill:#FFFFFF;stroke:#000000;stroke-width:2;stroke-linecap:round;stroke-linejoin:round;stroke-miterlimit:10;}
	.st2{fill:#E1C670;stroke:#000000;stroke-width:2;stroke-miterlimit:10;}
	.st3{fill:#CB416C;stroke:#000000;stroke-width:2;stroke-miterlimit:10;}
	.st4{fill:none;stroke:#000000;stroke-width:2;stroke-linecap:round;stroke-linejoin:round;stroke-miterlimit:10;}
</style>
<g>
	<rect y="0" class="st0" width="120" height="120"/>
	<path class="st1" d="M87.22,66.84H42.19L28.39,15.98c-1.4-5.15-6.76-8.22-11.91-6.83l-2.14,0.58c-5.15,1.4-8.22,6.76-6.83,11.91
		l15.62,57.58c0.48,1.77,1.45,3.27,2.7,4.45c1.68,2.37,4.43,3.94,7.54,3.94h53.84c5.09,0,9.25-4.16,9.25-9.25v-2.28
		C96.47,71,92.3,66.84,87.22,66.84z"/>
	<path class="st2" d="M36.64,35.57l-4.52,1.09c-1.52,0.37-3.07-0.58-3.43-2.1l-4.8-19.93c-0.37-1.52,0.58-3.07,2.1-3.43l4.52-1.09
		c1.52-0.37,3.07,0.58,3.43,2.1l4.8,19.93C39.11,33.66,38.16,35.21,36.64,35.57z"/>
	<path class="st3" d="M70.1,54.76l-33.8,1.21c-3.92,0.14-7.3-2.15-7.3-5.1v0c0-2.95,3.37-5.24,7.3-5.1l33.8,1.21
		c2.17,0.08,3.89,1.83,3.89,3.89v0C73.98,52.93,72.27,54.68,70.1,54.76z"/>
	<path class="st1" d="M99.15,44.83h-1c-7.52,0-13.67-6.15-13.67-13.67V18.26c0-7.52,6.15-13.67,13.67-13.67h1
		c7.52,0,13.67,6.15,13.67,13.67v12.91C112.82,38.68,106.67,44.83,99.15,44.83z"/>
	<path class="st1" d="M78.61,102.55H41.36c-1.89,0-3.92-1.58-4.52-3.61v0c-0.64-2.14,0.51-3.98,2.6-3.98h41.1
		c2.09,0,3.24,1.84,2.6,3.98v0C82.53,100.97,80.5,102.55,78.61,102.55z"/>
	<path class="st1" d="M79.77,110.52H40.1c-1.36,0-2.47-1.11-2.47-2.47v-3.04c0-1.36,1.11-2.47,2.47-2.47h39.67
		c1.36,0,2.47,1.11,2.47,2.47v3.04C82.24,109.41,81.13,110.52,79.77,110.52z"/>
	<path class="st1" d="M107.21,19.4c0.05,0.38,0.08,0.76,0.08,1.15v9.49c0,4.75-3.89,8.64-8.64,8.64h0c-4.75,0-8.64-3.89-8.64-8.64
		v-9.49c0-0.39,0.03-0.77,0.08-1.14"/>
	<line class="st4" x1="84.33" y1="19.4" x2="112.66" y2="19.4"/>
	<line class="st4" x1="95.42" y1="13.29" x2="101.89" y2="13.29"/>
	<line class="st4" x1="91.95" y1="34.3" x2="106.53" y2="19.48"/>
</g>
</svg>
