<?xml version="1.0" encoding="utf-8"?>
<!-- Generator: Adobe Illustrator 26.3.1, SVG Export Plug-In . SVG Version: 6.00 Build 0)  -->
<svg version="1.1" id="Layer_1" xmlns="http://www.w3.org/2000/svg" xmlns:xlink="http://www.w3.org/1999/xlink" x="0px" y="0px"
	 viewBox="0 0 168 168" style="enable-background:new 0 0 168 168;" xml:space="preserve">
<style type="text/css">
	.st0{fill:#FFFFFF;}
	.st1{fill:#CB416C;}
	.st2{fill:none;stroke:#000000;stroke-width:2.4;stroke-linecap:round;stroke-linejoin:round;stroke-miterlimit:10;}
	.st3{fill:none;stroke:#000000;stroke-width:2.4;stroke-linecap:round;stroke-linejoin:round;}
	.st4{fill:none;stroke:#000000;stroke-width:2.4;stroke-linecap:round;stroke-linejoin:round;stroke-dasharray:7.743,5.8073;}
	.st5{fill:none;stroke:#000000;stroke-width:4.0656;stroke-linecap:round;stroke-linejoin:round;stroke-miterlimit:10;}
</style>
<g>
	<circle class="st0" cx="84" cy="83.96" r="84"/>
	<g>
		<path class="st0" d="M49.89,56.47c-2.46,0-4.48,2.02-4.48,4.48v15.37c4.64,0,8.41,3.76,8.41,8.41c0,4.64-3.76,8.41-8.41,8.41
			v13.85c0,2.46,2.02,4.48,4.48,4.48h58.5V56.47H49.89z"/>
		<path class="st1" d="M118.11,56.47h-8.61h-1.1v54.99h1.1h8.61c2.46,0,4.48-2.02,4.48-4.48V60.95
			C122.59,58.48,120.57,56.47,118.11,56.47z"/>
		<path class="st2" d="M118.11,56.47h-8.61h-1.1h-58.5c-2.46,0-4.48,2.02-4.48,4.48v15.37c4.64,0,8.41,3.76,8.41,8.41
			c0,4.64-3.76,8.41-8.41,8.41v13.85c0,2.46,2.02,4.48,4.48,4.48h58.5h1.1h8.61c2.46,0,4.48-2.02,4.48-4.48V60.95
			C122.59,58.48,120.57,56.47,118.11,56.47z"/>
		<g>
			<g>
				<line class="st3" x1="108.39" y1="56.99" x2="108.39" y2="60.94"/>
				<line class="st4" x1="108.39" y1="66.75" x2="108.39" y2="104.49"/>
				<line class="st3" x1="108.39" y1="107.4" x2="108.39" y2="111.35"/>
			</g>
		</g>
		<polyline class="st5" points="65.52,82.17 74.62,90.72 89.64,77.21 		"/>
	</g>
</g>
</svg>
